<?xml version="1.0" encoding="UTF-8" standalone="no"?>
<!DOCTYPE svg PUBLIC "-//W3C//DTD SVG 1.1//EN"
 "http://www.w3.org/Graphics/SVG/1.1/DTD/svg11.dtd">
<!-- Generated by graphviz version 2.38.0 (20140413.2041)
 -->
<!-- Title: controllers_diagram Pages: 1 -->
<svg width="552pt" height="704pt"
 viewBox="0.00 0.00 552.00 704.50" xmlns="http://www.w3.org/2000/svg" xmlns:xlink="http://www.w3.org/1999/xlink">
<g id="graph0" class="graph" transform="scale(1 1) rotate(0) translate(235 449)">
<title>controllers_diagram</title>
<polygon fill="none" stroke="none" points="-235,255.5 -235,-449 317,-449 317,255.5 -235,255.5"/>
<!-- _diagram_info -->
<g id="node1" class="node"><title>_diagram_info</title>
<text text-anchor="start" x="-222.5" y="167.4" font-family="Times,serif" font-size="13.00">Controllers diagram</text>
<text text-anchor="start" x="-222.5" y="181.4" font-family="Times,serif" font-size="13.00">Date: Oct 27 2015 &#45; 02:56</text>
<text text-anchor="start" x="-222.5" y="195.4" font-family="Times,serif" font-size="13.00">Migration version: 20151026202520</text>
<text text-anchor="start" x="-222.5" y="209.4" font-family="Times,serif" font-size="13.00">Generated by RailRoady 1.4.0</text>
<text text-anchor="start" x="-222.5" y="223.4" font-family="Times,serif" font-size="13.00">http://railroady.prestonlee.com</text>
</g>
<!-- ApplicationController -->
<g id="node2" class="node"><title>ApplicationController</title>
<path fill="none" stroke="black" d="M75,251C75,251 223,251 223,251 229,251 235,245 235,239 235,239 235,169 235,169 235,163 229,157 223,157 223,157 75,157 75,157 69,157 63,163 63,169 63,169 63,239 63,239 63,245 69,251 75,251"/>
<text text-anchor="middle" x="149" y="172.2" font-family="Times,serif" font-size="14.00">ApplicationController</text>
<polyline fill="none" stroke="black" points="63,180 235,180 "/>
<polyline fill="none" stroke="black" points="63,204 235,204 "/>
<polyline fill="none" stroke="black" points="63,228 235,228 "/>
<text text-anchor="start" x="71" y="243.2" font-family="Times,serif" font-size="14.00">_layout</text>
</g>
<!-- PreRequisitosController -->
<g id="node3" class="node"><title>PreRequisitosController</title>
<path fill="none" stroke="black" d="M-93,104.5C-93,104.5 73,104.5 73,104.5 79,104.5 85,98.5 85,92.5 85,92.5 85,-96.5 85,-96.5 85,-102.5 79,-108.5 73,-108.5 73,-108.5 -93,-108.5 -93,-108.5 -99,-108.5 -105,-102.5 -105,-96.5 -105,-96.5 -105,92.5 -105,92.5 -105,98.5 -99,104.5 -93,104.5"/>
<text text-anchor="middle" x="-10" y="-93.3" font-family="Times,serif" font-size="14.00">PreRequisitosController</text>
<polyline fill="none" stroke="black" points="-105,-85.5 85,-85.5 "/>
<text text-anchor="start" x="-97" y="-70.3" font-family="Times,serif" font-size="14.00">create</text>
<text text-anchor="start" x="-97" y="-55.3" font-family="Times,serif" font-size="14.00">destroy</text>
<text text-anchor="start" x="-97" y="-40.3" font-family="Times,serif" font-size="14.00">edit</text>
<text text-anchor="start" x="-97" y="-25.3" font-family="Times,serif" font-size="14.00">index</text>
<text text-anchor="start" x="-97" y="-10.3" font-family="Times,serif" font-size="14.00">new</text>
<text text-anchor="start" x="-97" y="4.7" font-family="Times,serif" font-size="14.00">show</text>
<text text-anchor="start" x="-97" y="19.7" font-family="Times,serif" font-size="14.00">update</text>
<polyline fill="none" stroke="black" points="-105,27.5 85,27.5 "/>
<polyline fill="none" stroke="black" points="-105,51.5 85,51.5 "/>
<text text-anchor="start" x="-97" y="66.7" font-family="Times,serif" font-size="14.00">_layout</text>
<text text-anchor="start" x="-97" y="81.7" font-family="Times,serif" font-size="14.00">pre_requisito_params</text>
<text text-anchor="start" x="-97" y="96.7" font-family="Times,serif" font-size="14.00">set_pre_requisito</text>
</g>
<!-- DisciplinasController -->
<g id="node4" class="node"><title>DisciplinasController</title>
<path fill="none" stroke="black" d="M137.5,125C137.5,125 282.5,125 282.5,125 288.5,125 294.5,119 294.5,113 294.5,113 294.5,-91 294.5,-91 294.5,-97 288.5,-103 282.5,-103 282.5,-103 137.5,-103 137.5,-103 131.5,-103 125.5,-97 125.5,-91 125.5,-91 125.5,113 125.5,113 125.5,119 131.5,125 137.5,125"/>
<text text-anchor="middle" x="210" y="-87.8" font-family="Times,serif" font-size="14.00">DisciplinasController</text>
<polyline fill="none" stroke="black" points="125.5,-80 294.5,-80 "/>
<text text-anchor="start" x="133.5" y="-64.8" font-family="Times,serif" font-size="14.00">create</text>
<text text-anchor="start" x="133.5" y="-49.8" font-family="Times,serif" font-size="14.00">destroy</text>
<text text-anchor="start" x="133.5" y="-34.8" font-family="Times,serif" font-size="14.00">edit</text>
<text text-anchor="start" x="133.5" y="-19.8" font-family="Times,serif" font-size="14.00">index</text>
<text text-anchor="start" x="133.5" y="-4.8" font-family="Times,serif" font-size="14.00">new</text>
<text text-anchor="start" x="133.5" y="10.2" font-family="Times,serif" font-size="14.00">show</text>
<text text-anchor="start" x="133.5" y="25.2" font-family="Times,serif" font-size="14.00">update</text>
<polyline fill="none" stroke="black" points="125.5,33 294.5,33 "/>
<polyline fill="none" stroke="black" points="125.5,57 294.5,57 "/>
<text text-anchor="start" x="133.5" y="72.2" font-family="Times,serif" font-size="14.00">_layout</text>
<text text-anchor="start" x="133.5" y="87.2" font-family="Times,serif" font-size="14.00">disciplina_params</text>
<text text-anchor="start" x="133.5" y="102.2" font-family="Times,serif" font-size="14.00">get_pre_requisitos</text>
<text text-anchor="start" x="133.5" y="117.2" font-family="Times,serif" font-size="14.00">set_disciplina</text>
</g>
<!-- TurmasController -->
<g id="node5" class="node"><title>TurmasController</title>
<path fill="none" stroke="black" d="M-30,-147.5C-30,-147.5 90,-147.5 90,-147.5 96,-147.5 102,-153.5 102,-159.5 102,-159.5 102,-348.5 102,-348.5 102,-354.5 96,-360.5 90,-360.5 90,-360.5 -30,-360.5 -30,-360.5 -36,-360.5 -42,-354.5 -42,-348.5 -42,-348.5 -42,-159.5 -42,-159.5 -42,-153.5 -36,-147.5 -30,-147.5"/>
<text text-anchor="middle" x="30" y="-345.3" font-family="Times,serif" font-size="14.00">TurmasController</text>
<polyline fill="none" stroke="black" points="-42,-337.5 102,-337.5 "/>
<text text-anchor="start" x="-34" y="-322.3" font-family="Times,serif" font-size="14.00">create</text>
<text text-anchor="start" x="-34" y="-307.3" font-family="Times,serif" font-size="14.00">destroy</text>
<text text-anchor="start" x="-34" y="-292.3" font-family="Times,serif" font-size="14.00">edit</text>
<text text-anchor="start" x="-34" y="-277.3" font-family="Times,serif" font-size="14.00">index</text>
<text text-anchor="start" x="-34" y="-262.3" font-family="Times,serif" font-size="14.00">new</text>
<text text-anchor="start" x="-34" y="-247.3" font-family="Times,serif" font-size="14.00">show</text>
<text text-anchor="start" x="-34" y="-232.3" font-family="Times,serif" font-size="14.00">update</text>
<polyline fill="none" stroke="black" points="-42,-224.5 102,-224.5 "/>
<polyline fill="none" stroke="black" points="-42,-200.5 102,-200.5 "/>
<text text-anchor="start" x="-34" y="-185.3" font-family="Times,serif" font-size="14.00">_layout</text>
<text text-anchor="start" x="-34" y="-170.3" font-family="Times,serif" font-size="14.00">set_turma</text>
<text text-anchor="start" x="-34" y="-155.3" font-family="Times,serif" font-size="14.00">turma_params</text>
</g>
<!-- CursosController -->
<g id="node6" class="node"><title>CursosController</title>
<path fill="none" stroke="black" d="M-219,-231.5C-219,-231.5 -103,-231.5 -103,-231.5 -97,-231.5 -91,-237.5 -91,-243.5 -91,-243.5 -91,-432.5 -91,-432.5 -91,-438.5 -97,-444.5 -103,-444.5 -103,-444.5 -219,-444.5 -219,-444.5 -225,-444.5 -231,-438.5 -231,-432.5 -231,-432.5 -231,-243.5 -231,-243.5 -231,-237.5 -225,-231.5 -219,-231.5"/>
<text text-anchor="middle" x="-161" y="-429.3" font-family="Times,serif" font-size="14.00">CursosController</text>
<polyline fill="none" stroke="black" points="-231,-421.5 -91,-421.5 "/>
<text text-anchor="start" x="-223" y="-406.3" font-family="Times,serif" font-size="14.00">create</text>
<text text-anchor="start" x="-223" y="-391.3" font-family="Times,serif" font-size="14.00">destroy</text>
<text text-anchor="start" x="-223" y="-376.3" font-family="Times,serif" font-size="14.00">edit</text>
<text text-anchor="start" x="-223" y="-361.3" font-family="Times,serif" font-size="14.00">index</text>
<text text-anchor="start" x="-223" y="-346.3" font-family="Times,serif" font-size="14.00">new</text>
<text text-anchor="start" x="-223" y="-331.3" font-family="Times,serif" font-size="14.00">show</text>
<text text-anchor="start" x="-223" y="-316.3" font-family="Times,serif" font-size="14.00">update</text>
<polyline fill="none" stroke="black" points="-231,-308.5 -91,-308.5 "/>
<polyline fill="none" stroke="black" points="-231,-284.5 -91,-284.5 "/>
<text text-anchor="start" x="-223" y="-269.3" font-family="Times,serif" font-size="14.00">_layout</text>
<text text-anchor="start" x="-223" y="-254.3" font-family="Times,serif" font-size="14.00">curso_params</text>
<text text-anchor="start" x="-223" y="-239.3" font-family="Times,serif" font-size="14.00">set_curso</text>
</g>
<!-- CurriculosController -->
<g id="node7" class="node"><title>CurriculosController</title>
<path fill="none" stroke="black" d="M159,-147.5C159,-147.5 301,-147.5 301,-147.5 307,-147.5 313,-153.5 313,-159.5 313,-159.5 313,-348.5 313,-348.5 313,-354.5 307,-360.5 301,-360.5 301,-360.5 159,-360.5 159,-360.5 153,-360.5 147,-354.5 147,-348.5 147,-348.5 147,-159.5 147,-159.5 147,-153.5 153,-147.5 159,-147.5"/>
<text text-anchor="middle" x="230" y="-345.3" font-family="Times,serif" font-size="14.00">CurriculosController</text>
<polyline fill="none" stroke="black" points="147,-337.5 313,-337.5 "/>
<text text-anchor="start" x="155" y="-322.3" font-family="Times,serif" font-size="14.00">create</text>
<text text-anchor="start" x="155" y="-307.3" font-family="Times,serif" font-size="14.00">destroy</text>
<text text-anchor="start" x="155" y="-292.3" font-family="Times,serif" font-size="14.00">edit</text>
<text text-anchor="start" x="155" y="-277.3" font-family="Times,serif" font-size="14.00">index</text>
<text text-anchor="start" x="155" y="-262.3" font-family="Times,serif" font-size="14.00">new</text>
<text text-anchor="start" x="155" y="-247.3" font-family="Times,serif" font-size="14.00">show</text>
<text text-anchor="start" x="155" y="-232.3" font-family="Times,serif" font-size="14.00">update</text>
<polyline fill="none" stroke="black" points="147,-224.5 313,-224.5 "/>
<polyline fill="none" stroke="black" points="147,-200.5 313,-200.5 "/>
<text text-anchor="start" x="155" y="-185.3" font-family="Times,serif" font-size="14.00">_layout</text>
<text text-anchor="start" x="155" y="-170.3" font-family="Times,serif" font-size="14.00">curriculo_params</text>
<text text-anchor="start" x="155" y="-155.3" font-family="Times,serif" font-size="14.00">set_curriculo</text>
</g>
</g>
</svg>
