<?xml version="1.0" encoding="UTF-8" standalone="no"?>
<!DOCTYPE svg PUBLIC "-//W3C//DTD SVG 1.1//EN"
 "http://www.w3.org/Graphics/SVG/1.1/DTD/svg11.dtd">
<!-- Generated by graphviz version 2.38.0 (20140413.2041)
 -->
<!-- Title: models_diagram Pages: 1 -->
<svg width="830pt" height="431pt"
 viewBox="0.00 0.00 829.50 431.00" xmlns="http://www.w3.org/2000/svg" xmlns:xlink="http://www.w3.org/1999/xlink">
<g id="graph0" class="graph" transform="scale(1 1) rotate(0) translate(4 427)">
<title>models_diagram</title>
<polygon fill="none" stroke="none" points="-4,4 -4,-427 825.5,-427 825.5,4 -4,4"/>
<!-- _diagram_info -->
<g id="node1" class="node"><title>_diagram_info</title>
<text text-anchor="start" x="8" y="-386.6" font-family="Times,serif" font-size="13.00">Models diagram</text>
<text text-anchor="start" x="8" y="-372.6" font-family="Times,serif" font-size="13.00">Date: Oct 27 2015 &#45; 02:56</text>
<text text-anchor="start" x="8" y="-358.6" font-family="Times,serif" font-size="13.00">Migration version: 20151026202520</text>
<text text-anchor="start" x="8" y="-344.6" font-family="Times,serif" font-size="13.00">Generated by RailRoady 1.4.0</text>
<text text-anchor="start" x="8" y="-330.6" font-family="Times,serif" font-size="13.00">http://railroady.prestonlee.com</text>
</g>
<!-- Disciplina -->
<g id="node2" class="node"><title>Disciplina</title>
<path fill="none" stroke="black" d="M287.5,-143.5C287.5,-143.5 433.5,-143.5 433.5,-143.5 439.5,-143.5 445.5,-149.5 445.5,-155.5 445.5,-155.5 445.5,-252.5 445.5,-252.5 445.5,-258.5 439.5,-264.5 433.5,-264.5 433.5,-264.5 287.5,-264.5 287.5,-264.5 281.5,-264.5 275.5,-258.5 275.5,-252.5 275.5,-252.5 275.5,-155.5 275.5,-155.5 275.5,-149.5 281.5,-143.5 287.5,-143.5"/>
<text text-anchor="middle" x="360.5" y="-249.3" font-family="Times,serif" font-size="14.00">Disciplina</text>
<polyline fill="none" stroke="black" points="275.5,-241.5 445.5,-241.5 "/>
<text text-anchor="start" x="283.5" y="-226.3" font-family="Times,serif" font-size="14.00">id :INTEGER</text>
<text text-anchor="start" x="283.5" y="-211.3" font-family="Times,serif" font-size="14.00">nome :varchar</text>
<text text-anchor="start" x="283.5" y="-196.3" font-family="Times,serif" font-size="14.00">semestre :integer</text>
<text text-anchor="start" x="283.5" y="-181.3" font-family="Times,serif" font-size="14.00">created_at :datetime</text>
<text text-anchor="start" x="283.5" y="-166.3" font-family="Times,serif" font-size="14.00">updated_at :datetime</text>
<text text-anchor="start" x="283.5" y="-151.3" font-family="Times,serif" font-size="14.00">creditos :integer</text>
</g>
<!-- Disciplina&#45;&gt;Disciplina -->
<g id="edge2" class="edge"><title>Disciplina&#45;&gt;Disciplina</title>
<path fill="none" stroke="#d879b8" d="M454.61,-223.319C460.17,-218.698 463.5,-212.258 463.5,-204 463.5,-195.742 460.17,-189.302 454.61,-184.681"/>
<polygon fill="#d879b8" stroke="#d879b8" points="454.385,-223.45 443.48,-224.607 450.067,-225.971 445.749,-228.493 445.749,-228.493 445.749,-228.493 450.067,-225.971 448.019,-232.379 454.385,-223.45 454.385,-223.45"/>
<polygon fill="#d879b8" stroke="#d879b8" points="454.385,-184.55 448.019,-175.621 450.067,-182.029 445.749,-179.507 445.749,-179.507 445.749,-179.507 450.067,-182.029 443.48,-183.393 454.385,-184.55 454.385,-184.55"/>
</g>
<!-- PreRequisito -->
<g id="node6" class="node"><title>PreRequisito</title>
<path fill="none" stroke="black" d="M275.5,-0.5C275.5,-0.5 445.5,-0.5 445.5,-0.5 451.5,-0.5 457.5,-6.5 457.5,-12.5 457.5,-12.5 457.5,-94.5 457.5,-94.5 457.5,-100.5 451.5,-106.5 445.5,-106.5 445.5,-106.5 275.5,-106.5 275.5,-106.5 269.5,-106.5 263.5,-100.5 263.5,-94.5 263.5,-94.5 263.5,-12.5 263.5,-12.5 263.5,-6.5 269.5,-0.5 275.5,-0.5"/>
<text text-anchor="middle" x="360.5" y="-91.3" font-family="Times,serif" font-size="14.00">PreRequisito</text>
<polyline fill="none" stroke="black" points="263.5,-83.5 457.5,-83.5 "/>
<text text-anchor="start" x="271.5" y="-68.3" font-family="Times,serif" font-size="14.00">id :INTEGER</text>
<text text-anchor="start" x="271.5" y="-53.3" font-family="Times,serif" font-size="14.00">disciplina_id :integer</text>
<text text-anchor="start" x="271.5" y="-38.3" font-family="Times,serif" font-size="14.00">pre_requisito_id :integer</text>
<text text-anchor="start" x="271.5" y="-23.3" font-family="Times,serif" font-size="14.00">created_at :datetime</text>
<text text-anchor="start" x="271.5" y="-8.3" font-family="Times,serif" font-size="14.00">updated_at :datetime</text>
</g>
<!-- Disciplina&#45;&gt;PreRequisito -->
<g id="edge1" class="edge"><title>Disciplina&#45;&gt;PreRequisito</title>
<path fill="none" stroke="#41b716" d="M360.5,-135.448C360.5,-129.304 360.5,-123.098 360.5,-117.001"/>
<ellipse fill="none" stroke="#41b716" cx="360.5" cy="-139.455" rx="4" ry="4"/>
<polygon fill="#41b716" stroke="#41b716" points="360.5,-116.872 365,-106.872 360.5,-111.872 360.5,-106.872 360.5,-106.872 360.5,-106.872 360.5,-111.872 356,-106.872 360.5,-116.872 360.5,-116.872"/>
</g>
<!-- Turma -->
<g id="node3" class="node"><title>Turma</title>
<path fill="none" stroke="black" d="M475.5,-309C475.5,-309 621.5,-309 621.5,-309 627.5,-309 633.5,-315 633.5,-321 633.5,-321 633.5,-403 633.5,-403 633.5,-409 627.5,-415 621.5,-415 621.5,-415 475.5,-415 475.5,-415 469.5,-415 463.5,-409 463.5,-403 463.5,-403 463.5,-321 463.5,-321 463.5,-315 469.5,-309 475.5,-309"/>
<text text-anchor="middle" x="548.5" y="-399.8" font-family="Times,serif" font-size="14.00">Turma</text>
<polyline fill="none" stroke="black" points="463.5,-392 633.5,-392 "/>
<text text-anchor="start" x="471.5" y="-376.8" font-family="Times,serif" font-size="14.00">id :INTEGER</text>
<text text-anchor="start" x="471.5" y="-361.8" font-family="Times,serif" font-size="14.00">horario :varchar</text>
<text text-anchor="start" x="471.5" y="-346.8" font-family="Times,serif" font-size="14.00">disciplina_id :integer</text>
<text text-anchor="start" x="471.5" y="-331.8" font-family="Times,serif" font-size="14.00">created_at :datetime</text>
<text text-anchor="start" x="471.5" y="-316.8" font-family="Times,serif" font-size="14.00">updated_at :datetime</text>
</g>
<!-- Curriculo -->
<g id="node4" class="node"><title>Curriculo</title>
<path fill="none" stroke="black" d="M287.5,-301.5C287.5,-301.5 433.5,-301.5 433.5,-301.5 439.5,-301.5 445.5,-307.5 445.5,-313.5 445.5,-313.5 445.5,-410.5 445.5,-410.5 445.5,-416.5 439.5,-422.5 433.5,-422.5 433.5,-422.5 287.5,-422.5 287.5,-422.5 281.5,-422.5 275.5,-416.5 275.5,-410.5 275.5,-410.5 275.5,-313.5 275.5,-313.5 275.5,-307.5 281.5,-301.5 287.5,-301.5"/>
<text text-anchor="middle" x="360.5" y="-407.3" font-family="Times,serif" font-size="14.00">Curriculo</text>
<polyline fill="none" stroke="black" points="275.5,-399.5 445.5,-399.5 "/>
<text text-anchor="start" x="283.5" y="-384.3" font-family="Times,serif" font-size="14.00">id :INTEGER</text>
<text text-anchor="start" x="283.5" y="-369.3" font-family="Times,serif" font-size="14.00">codigo :varchar</text>
<text text-anchor="start" x="283.5" y="-354.3" font-family="Times,serif" font-size="14.00">curso_id :integer</text>
<text text-anchor="start" x="283.5" y="-339.3" font-family="Times,serif" font-size="14.00">created_at :datetime</text>
<text text-anchor="start" x="283.5" y="-324.3" font-family="Times,serif" font-size="14.00">updated_at :datetime</text>
<text text-anchor="start" x="283.5" y="-309.3" font-family="Times,serif" font-size="14.00">disciplina_id :integer</text>
</g>
<!-- Curriculo&#45;&gt;Disciplina -->
<g id="edge3" class="edge"><title>Curriculo&#45;&gt;Disciplina</title>
<path fill="none" stroke="#f61282" d="M360.5,-292.936C360.5,-286.914 360.5,-280.812 360.5,-274.776"/>
<ellipse fill="none" stroke="#f61282" cx="360.5" cy="-297.132" rx="4" ry="4"/>
<polygon fill="#f61282" stroke="#f61282" points="360.5,-274.707 365,-264.707 360.5,-269.707 360.5,-264.707 360.5,-264.707 360.5,-264.707 360.5,-269.707 356,-264.707 360.5,-274.707 360.5,-274.707"/>
</g>
<!-- Curso -->
<g id="node5" class="node"><title>Curso</title>
<path fill="none" stroke="black" d="M663.5,-309C663.5,-309 809.5,-309 809.5,-309 815.5,-309 821.5,-315 821.5,-321 821.5,-321 821.5,-403 821.5,-403 821.5,-409 815.5,-415 809.5,-415 809.5,-415 663.5,-415 663.5,-415 657.5,-415 651.5,-409 651.5,-403 651.5,-403 651.5,-321 651.5,-321 651.5,-315 657.5,-309 663.5,-309"/>
<text text-anchor="middle" x="736.5" y="-399.8" font-family="Times,serif" font-size="14.00">Curso</text>
<polyline fill="none" stroke="black" points="651.5,-392 821.5,-392 "/>
<text text-anchor="start" x="659.5" y="-376.8" font-family="Times,serif" font-size="14.00">id :INTEGER</text>
<text text-anchor="start" x="659.5" y="-361.8" font-family="Times,serif" font-size="14.00">nome :varchar</text>
<text text-anchor="start" x="659.5" y="-346.8" font-family="Times,serif" font-size="14.00">grau :varchar</text>
<text text-anchor="start" x="659.5" y="-331.8" font-family="Times,serif" font-size="14.00">created_at :datetime</text>
<text text-anchor="start" x="659.5" y="-316.8" font-family="Times,serif" font-size="14.00">updated_at :datetime</text>
</g>
</g>
</svg>
